<svg xmlns="http://www.w3.org/2000/svg" viewBox="0 0 200 200" width="200" height="200">
  <!-- Background circle with gradient -->
  <defs>
    <linearGradient id="bgGradient" x1="0%" y1="0%" x2="100%" y2="100%">
      <stop offset="0%" style="stop-color:#20c997;stop-opacity:1" />
      <stop offset="100%" style="stop-color:#17a2b8;stop-opacity:1" />
    </linearGradient>
    <linearGradient id="docGradient" x1="0%" y1="0%" x2="100%" y2="100%">
      <stop offset="0%" style="stop-color:#ffffff;stop-opacity:1" />
      <stop offset="100%" style="stop-color:#e9ecef;stop-opacity:1" />
    </linearGradient>
  </defs>
  
  <!-- Main circle background -->
  <circle cx="100" cy="100" r="95" fill="url(#bgGradient)" />
  
  <!-- Document shape -->
  <rect x="60" y="40" width="80" height="100" rx="5" fill="url(#docGradient)" stroke="#17a2b8" stroke-width="2"/>
  
  <!-- Folded corner -->
  <path d="M 140 40 L 140 55 L 125 55 Z" fill="#cbd5e0" stroke="#17a2b8" stroke-width="1"/>
  <path d="M 125 55 L 140 55 L 140 40" fill="none" stroke="#17a2b8" stroke-width="1"/>
  
  <!-- HL7 text -->
  <text x="100" y="75" font-family="monospace" font-size="18" font-weight="bold" fill="#17a2b8" text-anchor="middle">HL7</text>
  
  <!-- Message lines -->
  <line x1="70" y1="90" x2="130" y2="90" stroke="#4ec9b0" stroke-width="2"/>
  <line x1="70" y1="100" x2="125" y2="100" stroke="#ce9178" stroke-width="2"/>
  <line x1="70" y1="110" x2="130" y2="110" stroke="#9cdcfe" stroke-width="2"/>
  <line x1="70" y1="120" x2="120" y2="120" stroke="#4ec9b0" stroke-width="2"/>
  
  <!-- Medical cross accent -->
  <g transform="translate(100, 155)">
    <rect x="-3" y="-8" width="6" height="16" fill="#dc3545" rx="1"/>
    <rect x="-8" y="-3" width="16" height="6" fill="#dc3545" rx="1"/>
  </g>
  
  <!-- Magnifying glass (viewer concept) -->
  <circle cx="130" cy="130" r="12" fill="none" stroke="#ffffff" stroke-width="3"/>
  <line x1="139" y1="139" x2="148" y2="148" stroke="#ffffff" stroke-width="3" stroke-linecap="round"/>
</svg>

